<svg width="167" height="36" viewBox="0 0 248 49" fill="none" xmlns="http://www.w3.org/2000/svg">
<path d="M74.2548 36.4369C73.9869 37.2606 73.2191 37.8182 72.3529 37.8182H68.0436C66.6695 37.8182 65.7046 36.4644 66.153 35.1655L77.8276 1.34736C78.1059 0.541035 78.8651 0 79.7181 0H87.1706C88.024 0 88.7833 0.541435 89.0614 1.34819L100.719 35.1664C101.167 36.4651 100.202 37.8182 98.8287 37.8182H94.5188C93.6522 37.8182 92.8842 37.2601 92.6166 36.4358L83.6381 8.78259C83.6108 8.69879 83.5328 8.64205 83.4446 8.64205V8.64205C83.3566 8.64205 83.2785 8.69874 83.2513 8.78248L74.2548 36.4369ZM73.27 24.9531C73.27 23.8486 74.1654 22.9531 75.27 22.9531H91.5086C92.6132 22.9531 93.5086 23.8486 93.5086 24.9531V27.1946C93.5086 28.2992 92.6132 29.1946 91.5086 29.1946H75.27C74.1654 29.1946 73.27 28.2992 73.27 27.1946V24.9531Z" fill="#262A2E"/>
<path d="M104.398 48.4545C103.293 48.4545 102.398 47.5591 102.398 46.4545V11.4545C102.398 10.35 103.293 9.45455 104.398 9.45455H108.153C109.258 9.45455 110.153 10.35 110.153 11.4545V14.0055C110.153 14.1233 110.249 14.2188 110.367 14.2188V14.2188C110.45 14.2188 110.526 14.1696 110.562 14.0938C110.904 13.3709 111.383 12.637 112 11.892C112.665 11.0919 113.527 10.4271 114.585 9.89773C115.656 9.35606 116.986 9.08523 118.574 9.08523C120.642 9.08523 122.55 9.6269 124.298 10.7102C126.046 11.7813 127.444 13.4001 128.49 15.5668C129.536 17.7211 130.06 20.4233 130.06 23.6733C130.06 26.8371 129.549 29.5085 128.527 31.6875C127.518 33.8542 126.139 35.4976 124.391 36.6179C122.655 37.7259 120.71 38.2798 118.555 38.2798C117.029 38.2798 115.73 38.0275 114.659 37.5227C113.6 37.018 112.732 36.384 112.055 35.6207C111.403 34.8732 110.899 34.12 110.544 33.361C110.519 33.3091 110.467 33.2756 110.41 33.2756V33.2756C110.33 33.2756 110.264 33.3409 110.264 33.4215V46.4545C110.264 47.5591 109.369 48.4545 108.264 48.4545H104.398ZM110.098 23.6364C110.098 25.3229 110.332 26.794 110.8 28.0497C111.268 29.3054 111.945 30.2841 112.831 30.9858C113.717 31.6752 114.795 32.0199 116.063 32.0199C117.343 32.0199 118.426 31.669 119.313 30.9673C120.199 30.2533 120.87 29.2685 121.325 28.0128C121.793 26.7448 122.027 25.286 122.027 23.6364C122.027 21.9991 121.799 20.5587 121.344 19.3153C120.888 18.072 120.217 17.0994 119.331 16.3977C118.445 15.696 117.355 15.3452 116.063 15.3452C114.782 15.3452 113.699 15.6837 112.813 16.3608C111.938 17.0379 111.268 17.9981 110.8 19.2415C110.332 20.4848 110.098 21.9498 110.098 23.6364Z" fill="#262A2E"/>
<path d="M133.664 48.4545C132.559 48.4545 131.664 47.5591 131.664 46.4545V11.4545C131.664 10.35 132.559 9.45455 133.664 9.45455H137.42C138.524 9.45455 139.42 10.35 139.42 11.4545V14.0055C139.42 14.1233 139.515 14.2188 139.633 14.2188V14.2188C139.717 14.2188 139.792 14.1696 139.828 14.0938C140.17 13.3709 140.649 12.637 141.266 11.892C141.931 11.0919 142.793 10.4271 143.851 9.89773C144.923 9.35606 146.252 9.08523 147.84 9.08523C149.908 9.08523 151.816 9.6269 153.565 10.7102C155.313 11.7813 156.71 13.4001 157.756 15.5668C158.803 17.7211 159.326 20.4233 159.326 23.6733C159.326 26.8371 158.815 29.5085 157.793 31.6875C156.784 33.8542 155.405 35.4976 153.657 36.6179C151.921 37.7259 149.976 38.2798 147.822 38.2798C146.295 38.2798 144.996 38.0275 143.925 37.5227C142.867 37.018 141.999 36.384 141.322 35.6207C140.669 34.8732 140.165 34.12 139.81 33.361C139.786 33.3091 139.734 33.2756 139.676 33.2756V33.2756C139.596 33.2756 139.53 33.3409 139.53 33.4215V46.4545C139.53 47.5591 138.635 48.4545 137.53 48.4545H133.664ZM139.364 23.6364C139.364 25.3229 139.598 26.794 140.066 28.0497C140.534 29.3054 141.211 30.2841 142.097 30.9858C142.984 31.6752 144.061 32.0199 145.329 32.0199C146.609 32.0199 147.692 31.669 148.579 30.9673C149.465 30.2533 150.136 29.2685 150.592 28.0128C151.059 26.7448 151.293 25.286 151.293 23.6364C151.293 21.9991 151.066 20.5587 150.61 19.3153C150.155 18.072 149.484 17.0994 148.597 16.3977C147.711 15.696 146.621 15.3452 145.329 15.3452C144.048 15.3452 142.965 15.6837 142.079 16.3608C141.205 17.0379 140.534 17.9981 140.066 19.2415C139.598 20.4848 139.364 21.9498 139.364 23.6364Z" fill="#262A2E"/>
<path d="M184.031 15.4608C184.425 16.5512 183.546 17.6031 182.389 17.6744L179.07 17.8786C178.072 17.94 177.221 17.2034 176.606 16.4144C176.583 16.384 176.559 16.3538 176.534 16.3239C176.128 15.8191 175.592 15.419 174.927 15.1236C174.275 14.8158 173.493 14.6619 172.582 14.6619C171.363 14.6619 170.336 14.9205 169.498 15.4375C168.661 15.9422 168.243 16.6193 168.243 17.4688C168.243 18.1458 168.514 18.7183 169.055 19.1861C169.597 19.6539 170.526 20.0294 171.844 20.3125L176.977 21.3466C179.735 21.9129 181.791 22.8239 183.145 24.0795C184.499 25.3352 185.176 26.9848 185.176 29.0284C185.176 30.8873 184.628 32.5185 183.533 33.9219C182.449 35.3253 180.96 36.4209 179.064 37.2088C177.18 37.9844 175.007 38.3722 172.545 38.3722C168.791 38.3722 165.799 37.5904 163.571 36.027C161.967 34.8865 160.844 33.4493 160.201 31.7155C159.793 30.6151 160.683 29.5479 161.855 29.4864L165.692 29.2849C166.681 29.233 167.502 29.9599 168.058 30.7786C168.335 31.1853 168.685 31.5313 169.111 31.8168C170.009 32.4077 171.16 32.7031 172.564 32.7031C173.943 32.7031 175.05 32.4384 175.888 31.9091C176.737 31.3674 177.168 30.6719 177.18 29.8224C177.168 29.1084 176.866 28.5237 176.275 28.0682C175.684 27.6004 174.774 27.2434 173.542 26.9972L168.631 26.0185C165.861 25.4645 163.799 24.5043 162.444 23.1378C161.103 21.7713 160.432 20.0294 160.432 17.9119C160.432 16.09 160.924 14.5204 161.909 13.2031C162.906 11.8859 164.303 10.8703 166.101 10.1562C167.91 9.44224 170.028 9.08523 172.453 9.08523C176.035 9.08523 178.854 9.84233 180.91 11.3565C182.394 12.4427 183.434 13.8108 184.031 15.4608Z" fill="#262A2E"/>
<path d="M199.576 9.45455C200.681 9.45455 201.576 10.35 201.576 11.4545V13.3636C201.576 14.4682 200.681 15.3636 199.576 15.3636H186.495C185.391 15.3636 184.495 14.4682 184.495 13.3636V11.4545C184.495 10.35 185.391 9.45455 186.495 9.45455H199.576ZM188.373 4.65909C188.373 3.55452 189.268 2.65909 190.373 2.65909H194.239C195.344 2.65909 196.239 3.55452 196.239 4.65909V29.1023C196.239 29.8286 196.35 30.3949 196.572 30.8011C196.793 31.1951 197.101 31.4721 197.495 31.6321C197.901 31.7921 198.369 31.8722 198.899 31.8722C199.268 31.8722 199.637 31.8414 200.007 31.7798V31.7798C200.478 31.6855 200.935 31.9897 201.035 32.4605L201.738 35.7886C201.939 36.7404 201.38 37.6793 200.431 37.892V37.892C199.717 38.0644 198.849 38.169 197.828 38.206C195.932 38.2798 194.27 38.0275 192.842 37.4489C191.426 36.8703 190.324 35.9716 189.536 34.7528C188.748 33.5341 188.361 31.9953 188.373 30.1364V4.65909Z" fill="#262A2E"/>
<path d="M215.682 38.3722C212.764 38.3722 210.253 37.7813 208.148 36.5994C206.055 35.4053 204.442 33.7188 203.31 31.5398C202.177 29.3485 201.611 26.7571 201.611 23.7656C201.611 20.848 202.177 18.2874 203.31 16.0838C204.442 13.8802 206.036 12.1629 208.092 10.9318C210.161 9.70076 212.586 9.08523 215.368 9.08523C217.239 9.08523 218.981 9.38684 220.594 9.99006C222.219 10.581 223.634 11.4735 224.841 12.6676C226.06 13.8617 227.008 15.3636 227.685 17.1733C228.362 18.9706 228.7 21.0758 228.7 23.4886V23.6491C228.7 24.7537 227.805 25.6491 226.7 25.6491H206.75C205.645 25.6491 204.75 24.7537 204.75 23.6491V22.7741C204.75 21.6696 205.645 20.7741 206.75 20.7741H219.295C220.4 20.7741 221.341 19.856 221.007 18.803C220.892 18.4385 220.742 18.0923 220.557 17.7642C220.064 16.8902 219.381 16.2069 218.507 15.7145C217.645 15.2098 216.642 14.9574 215.497 14.9574C214.303 14.9574 213.244 15.2344 212.321 15.7884C211.41 16.33 210.696 17.0625 210.179 17.9858C209.662 18.8968 209.397 19.9124 209.385 21.0327V25.6676C209.385 27.071 209.643 28.2836 210.161 29.3054C210.69 30.3272 211.435 31.1151 212.395 31.669C213.355 32.223 214.494 32.5 215.811 32.5C216.685 32.5 217.485 32.3769 218.212 32.1307C218.938 31.8845 219.56 31.5152 220.077 31.0227C220.246 30.8615 220.402 30.6885 220.545 30.5035C221.083 29.8076 221.858 29.2526 222.735 29.3105L226.232 29.5413C227.447 29.6214 228.325 30.7745 227.817 31.881C227.42 32.7473 226.902 33.5445 226.263 34.2727C225.13 35.5653 223.665 36.5748 221.868 37.3011C220.083 38.0152 218.021 38.3722 215.682 38.3722Z" fill="#262A2E"/>
<path d="M232.194 37.8182C231.089 37.8182 230.194 36.9228 230.194 35.8182V11.4545C230.194 10.35 231.089 9.45455 232.194 9.45455H235.82C236.925 9.45455 237.82 10.35 237.82 11.4545V14.2344C237.82 14.3278 237.896 14.4034 237.989 14.4034V14.4034C238.064 14.4034 238.13 14.3538 238.152 14.2821C238.673 12.5818 239.529 11.2927 240.719 10.4148C241.938 9.50379 243.342 9.0483 244.93 9.0483C245.324 9.0483 245.748 9.07292 246.204 9.12216V9.12216C246.916 9.19912 247.404 9.82758 247.404 10.5436V14.743C247.404 15.5217 246.643 16.1119 245.871 16.0099V16.0099C245.219 15.9238 244.622 15.8807 244.08 15.8807C242.923 15.8807 241.889 16.1331 240.978 16.6378C240.079 17.1302 239.365 17.8196 238.836 18.706C238.319 19.5923 238.06 20.6141 238.06 21.7713V35.8182C238.06 36.9228 237.165 37.8182 236.06 37.8182H232.194Z" fill="#262A2E"/>
<path d="M49.6178 37.0158C50.442 37.2835 51 38.0515 51 38.918L51 46.1953C51 47.5689 49.647 48.5337 48.3483 48.0861L1.34835 31.8883C0.541512 31.6103 -7.93323e-07 30.8509 -8.30627e-07 29.9975L-1.31229e-06 18.9783C-1.34961e-06 18.1246 0.54191 17.365 1.34917 17.0872L48.3492 0.912278C49.6477 0.465389 51 1.43013 51 2.80342L51 10.0811C51 10.9481 50.4414 11.7163 49.6167 11.9836L11.8435 24.2273C11.7307 24.2639 11.6543 24.369 11.6543 24.4876V24.4876C11.6543 24.6062 11.7306 24.7113 11.8434 24.7479L49.6178 37.0158Z" fill="#0069F7"/>
</svg>
